HIERARCHY
ROOT Hips
{
	OFFSET	0.00	0.00	0.00
	CHANNELS 6 Xposition Yposition Zposition Zrotation Xrotation Yrotation
	JOINT LeftUpLeg
	{
		OFFSET	 0.126116	-0.014019	-0.065224
		CHANNELS 3 Zrotation Xrotation Yrotation
		JOINT LeftLeg
		{
			OFFSET	 0.000000	 0.000000	 0.569914
			CHANNELS 3 Zrotation Xrotation Yrotation
			JOINT LeftFoot
			{
				OFFSET	 0.000000	 0.000000	 0.544423
				CHANNELS 3 Zrotation Xrotation Yrotation
				JOINT LeftToeBase
				{
					OFFSET	 0.000000	 0.000000	 0.207117
					CHANNELS 3 Zrotation Xrotation Yrotation
					End Site
					{
						OFFSET	 0.000000	 0.000000	 0.207117
					}
				}
			}
		}
	}
	JOINT RightUpLeg
	{
		OFFSET	-0.124023	-0.008373	-0.065224
		CHANNELS 3 Zrotation Xrotation Yrotation
		JOINT RightLeg
		{
			OFFSET	 0.000000	 0.000000	 0.570047
			CHANNELS 3 Zrotation Xrotation Yrotation
			JOINT RightFoot
			{
				OFFSET	 0.000000	 0.000000	 0.544354
				CHANNELS 3 Zrotation Xrotation Yrotation
				JOINT RightToeBase
				{
					OFFSET	 0.000000	 0.000000	 0.207540
					CHANNELS 3 Zrotation Xrotation Yrotation
					End Site
					{
						OFFSET	 0.000000	 0.000000	 0.207540
					}
				}
			}
		}
	}
	JOINT Spine
	{
		OFFSET	 0.000184	-0.007763	 0.117403
		CHANNELS 3 Zrotation Xrotation Yrotation
		JOINT Spine1
		{
			OFFSET	 0.000000	 0.000000	 0.137269
			CHANNELS 3 Zrotation Xrotation Yrotation
			JOINT Spine2
			{
				OFFSET	 0.000000	 0.000000	 0.156879
				CHANNELS 3 Zrotation Xrotation Yrotation
				JOINT LeftShoulder
				{
					OFFSET	 0.080501	-0.002496	 0.160144
					CHANNELS 3 Zrotation Xrotation Yrotation
					JOINT LeftArm
					{
						OFFSET	 0.000000	 0.000000	 0.164363
						CHANNELS 3 Zrotation Xrotation Yrotation
						JOINT LeftForeArm
						{
							OFFSET	 0.000000	 0.000000	 0.364576
							CHANNELS 3 Zrotation Xrotation Yrotation
							JOINT LeftHand
							{
								OFFSET	 0.000000	 0.000000	 0.360812
								CHANNELS 3 Zrotation Xrotation Yrotation
								JOINT LeftHandIndex1
								{
									OFFSET	 0.000000	 0.000000	 0.086006
									CHANNELS 3 Zrotation Xrotation Yrotation
									JOINT LeftHandIndex2
									{
										OFFSET	 0.000000	 0.000000	 0.047236
										CHANNELS 3 Zrotation Xrotation Yrotation
										JOINT LeftHandIndex3
										{
											OFFSET	-0.004284	-0.000551	 0.038166
											CHANNELS 3 Zrotation Xrotation Yrotation
											End Site
											{
												OFFSET	-0.004284	-0.000551	 0.038166
											}
										}
									}
								}
							}
						}
					}
				}
				JOINT Neck
				{
					OFFSET	 0.000000	 0.000000	 0.176489
					CHANNELS 3 Zrotation Xrotation Yrotation
					JOINT Head
					{
						OFFSET	 0.000000	-0.001747	 0.077940
						CHANNELS 3 Zrotation Xrotation Yrotation
						End Site
						{
							OFFSET	 0.000000	-0.001747	 0.077940
						}
					}
				}
				JOINT RightShoulder
				{
					OFFSET	-0.080363	 0.000306	 0.159706
					CHANNELS 3 Zrotation Xrotation Yrotation
					JOINT RightArm
					{
						OFFSET	 0.000000	 0.000000	 0.164196
						CHANNELS 3 Zrotation Xrotation Yrotation
						JOINT RightForeArm
						{
							OFFSET	 0.000000	 0.000000	 0.365611
							CHANNELS 3 Zrotation Xrotation Yrotation
							JOINT RightHand
							{
								OFFSET	 0.000000	 0.000000	 0.360648
								CHANNELS 3 Zrotation Xrotation Yrotation
								JOINT RightHandIndex1
								{
									OFFSET	 0.000000	 0.000000	 0.069977
									CHANNELS 3 Zrotation Xrotation Yrotation
									JOINT RightHandIndex2
									{
										OFFSET	 0.000000	 0.000000	 0.052305
										CHANNELS 3 Zrotation Xrotation Yrotation
										JOINT RightHandIndex3
										{
											OFFSET	 0.009002	-0.000782	 0.042196
											CHANNELS 3 Zrotation Xrotation Yrotation
											End Site
											{
												OFFSET	 0.009002	-0.000782	 0.042196
											}
										}
									}
								}
							}
						}
					}
				}
			}
		}
	}
}
MOTION
Frames:    6
Frame Time: 0.03333334
-0.000659	 0.002910	 1.225164	 0.003153	 0.003738	-0.141058	 25.176860	-14.564950	 175.635500	 0.859243	-34.152380	-2.236611	-25.112450	 79.925100	 19.901250	-2.385833	 28.452760	 0.000004	-25.222220	-14.152080	-175.120200	-0.858637	-34.120370	 2.192833	 27.499660	 80.465830	-22.497040	 2.384658	 28.388730	 0.000004	 38.491900	 2.740896	-0.060830	 1.654840	 3.642241	 0.660523	-4.976386	-4.532980	-1.089799	-91.776080	 78.527450	 179.999900	 41.054410	 28.900880	-53.558910	-22.970630	 2.074241	-7.133025	-39.727760	 3.104893	-3.722154	-2.635965	 4.993658	 6.788941	-5.165319	 0.784187	 3.516649	-5.225038	 0.466231	 0.424329	-0.000002	-3.783157	-0.089647	-4.830858	 4.825551	 0.203657	 89.782130	 78.203890	 180.000000	-0.663958	 12.124490	 111.951000	-19.548860	 1.762847	 7.253128	 14.826410	 0.553882	-6.362182	 6.112037	 4.509576	-0.364401	 4.968462	 1.518543	-9.347576	 5.168945	 0.703820	 2.021906
-0.000657	 0.001816	 1.225642	 0.003150	 0.003742	-0.141062	 25.183190	-14.468620	 175.626300	 0.867386	-33.979170	-2.222077	-24.922330	 79.856370	 19.708550	-2.385833	 28.452760	 0.000004	-25.227650	-14.004570	-175.091600	-0.867783	-33.921760	 2.176498	 27.440410	 80.413620	-22.440730	 2.384658	 28.388730	 0.000004	 38.428760	 2.740892	-0.060825	 1.654840	 3.642251	 0.660504	-4.976383	-4.532990	-1.089789	-91.776190	 78.527470	 180.000000	 41.098630	 28.936750	-53.646160	-19.724020	 1.349890	-5.720392	-40.058820	 3.134503	-3.702686	-2.635965	 4.993658	 6.788941	-5.165319	 0.784187	 3.516649	-5.225038	 0.466231	 0.424329	-0.000002	-3.783157	-0.089647	-4.830858	 4.825551	 0.203657	 89.782110	 78.203890	 180.000000	-0.767909	 12.238180	 111.950000	-22.902570	 1.031718	 5.825288	 15.171220	 0.425938	-6.394069	 6.112037	 4.509576	-0.364401	 4.968462	 1.518543	-9.347576	 5.168945	 0.703820	 2.021906
-0.000626	 0.000682	 1.225953	 0.003151	 0.003740	-0.141051	 25.187070	-14.399560	 175.618000	 0.872797	-33.863080	-2.212371	-24.816930	 79.813470	 19.602150	-2.385833	 28.452760	 0.000004	-25.230410	-13.883410	-175.063600	-0.874273	-33.779500	 2.164839	 27.477150	 80.386650	-22.481990	 2.384658	 28.388730	 0.000004	 37.293390	 2.740887	-0.060834	 1.654840	 3.642247	 0.660514	-4.976374	-4.532981	-1.089787	-91.776240	 78.527490	-180.000000	 41.163510	 29.004840	-53.785710	-16.228740	 0.763565	-4.152375	-40.396920	 3.158660	-3.684723	-2.635965	 4.993658	 6.788941	-5.165319	 0.784187	 3.516649	-5.225038	 0.466231	 0.424329	-0.000002	-3.783157	-0.089647	-4.830858	 4.825551	 0.203657	 89.782110	 78.203890	 180.000000	-0.701490	 12.455750	 111.952300	-26.515690	 0.439051	 4.235791	 15.535260	 0.320318	-6.425541	 6.112037	 4.509576	-0.364401	 4.968462	 1.518543	-9.347576	 5.168945	 0.703820	 2.021906
-0.000594	-0.000378	 1.226272	 0.003153	 0.003738	-0.141058	 25.191120	-14.330260	 175.610000	 0.878282	-33.744690	-2.202502	-24.705390	 79.768860	 19.489400	-2.385833	 28.452760	 0.000004	-25.233550	-13.765160	-175.037300	-0.880772	-33.636100	 2.153131	 27.494510	 80.356800	-22.503270	 2.384658	 28.388730	 0.000004	 35.228910	 2.740897	-0.060830	 1.654841	 3.642240	 0.660517	-4.976375	-4.532980	-1.089787	-91.776080	 78.527430	 179.999900	 41.248190	 29.093390	-53.966700	-12.795680	 0.382409	-2.579443	-40.715770	 3.175658	-3.669766	-2.635965	 4.993658	 6.788941	-5.165319	 0.784187	 3.516649	-5.225038	 0.466231	 0.424329	-0.000002	-3.783157	-0.089647	-4.830858	 4.825551	 0.203657	 89.782120	 78.203900	 180.000000	-1.137380	 12.571170	 111.857000	-30.061820	 0.052146	 2.643118	 15.668260	 0.313693	-6.463208	 6.112037	 4.509576	-0.364401	 4.968462	 1.518543	-9.347576	 5.168945	 0.703820	 2.021906
-0.000590	-0.001505	 1.226943	 0.003153	 0.003738	-0.141058	 25.200450	-14.199340	 175.599400	 0.889501	-33.500610	-2.182241	-24.424750	 79.668140	 19.204360	-2.385833	 28.452760	 0.000004	-25.242550	-13.579920	-175.006500	-0.893005	-33.363340	 2.130962	 27.327720	 80.273380	-22.337590	 2.384658	 28.388730	 0.000004	 31.829000	 2.740897	-0.060830	 1.654839	 3.642241	 0.660524	-4.976384	-4.532980	-1.089799	-91.776090	 78.527450	 179.999900	 41.362890	 29.210620	-54.210140	-8.860889	 0.181743	-0.752951	-41.070690	 3.187883	-3.655671	-2.635965	 4.993658	 6.788941	-5.165319	 0.784187	 3.516649	-5.225038	 0.466231	 0.424329	-0.000002	-3.783157	-0.089647	-4.830858	 4.825551	 0.203657	 89.782100	 78.203890	 180.000000	-3.056350	 12.406230	 111.546500	-34.074210	-0.152364	 0.793950	 15.454340	 0.434110	-6.511821	 6.112037	 4.509576	-0.364401	 4.968462	 1.518543	-9.347576	 5.168945	 0.703820	 2.021906
-0.000611	-0.002579	 1.227879	 0.003153	 0.003738	-0.141058	 25.213920	-14.022510	 175.587200	 0.904911	-33.160510	-2.154189	-24.018370	 79.523340	 18.790960	-2.385833	 28.452760	 0.000004	-25.256340	-13.349150	-174.974700	-0.909319	-32.993800	 2.101152	 27.006800	 80.146470	-22.014910	 2.384658	 28.388730	 0.000004	 27.371150	 2.740898	-0.060830	 1.654838	 3.642237	 0.660552	-4.976395	-4.532974	-1.089815	-91.776150	 78.527430	 180.000000	 41.487480	 29.351840	-54.483860	-4.884727	 0.059622	-1.978166	-41.423390	 3.192743	-3.644599	-2.635965	 4.993658	 6.788941	-5.165319	 0.784187	 3.516649	-5.225038	 0.466231	 0.424329	-0.000002	-3.783157	-0.089647	-4.830858	 4.825551	 0.203657	 89.782150	 78.203900	 180.000000	-6.366960	 12.373730	 111.064100	-37.827090	-0.274796	 1.995600	 14.896300	 0.572457	-6.521843	 6.112037	 4.509576	-0.364401	 4.968462	 1.518543	-9.347576	 5.168945	 0.703820	 2.021906
